<svg fill="current" stroke="current" xmlns="http://www.w3.org/2000/svg" viewBox="0 0 473.09 475.43" style=""><defs><style>.cls-1{stroke:#fff;stroke-miterlimit:10;stroke-width:5px;}</style></defs><g id="Layer_2" data-name="Layer 2"><g id="Layer_2-2" data-name="Layer 2"><path class="cls-1 AGoJJkEk_0" d="M354.42,471.93L310.9,358.44L166.34,358.44L123.98,471.93L153.13,471.93L182.73,386.67L294.3,386.67L322.54,471.93L354.42,471.93Z"></path><path class="cls-1 AGoJJkEk_1" d="M98.18,471.93L150.85,332.33L131.85,298.66L78.51,444.67L47.51,444.67L125.79,242.84L174.4,330.2L300.98,330.2L252.72,201.6L223.39,201.6L196.97,273.51L223.39,273.51L236.4,234.95L261.97,301L186.81,301L138.4,209.88L198.14,61.11L167.12,61.11L5.14,471.93L98.18,471.93Z"></path><path class="cls-1 AGoJJkEk_2" d="M297.16,3.5L468.09,471.93L377.58,471.93L241.92,101.66L226.93,136.37L240.44,173.53L210.89,173.53L183.37,247.56L164.99,212.12L226.63,54.12L217.69,33.4L177.78,33.4L190.37,3.5L236.37,3.51L396.6,441.76L425,441.76L263.41,3.5L297.16,3.5Z"></path></g></g><style data-made-with="vivus-instant">.AGoJJkEk_0{stroke-dasharray:740 742;stroke-dashoffset:741;animation:AGoJJkEk_draw 2500ms ease-in-out 0ms forwards;}.AGoJJkEk_1{stroke-dasharray:2103 2105;stroke-dashoffset:2104;animation:AGoJJkEk_draw 2500ms ease-in-out 0ms forwards;}.AGoJJkEk_2{stroke-dasharray:2516 2518;stroke-dashoffset:2517;animation:AGoJJkEk_draw 2500ms ease-in-out 0ms forwards;}@keyframes AGoJJkEk_draw{100%{stroke-dashoffset:0;}}@keyframes AGoJJkEk_fade{0%{stroke-opacity:1;}94.02985074626866%{stroke-opacity:1;}100%{stroke-opacity:0;}}</style></svg>
