# Blender v2.91.2 OBJ File: 'test.blend'
# www.blender.org
mtllib logo1.mtl
o Curve.002
v 0.098949 0.000000 -0.277005
v 0.099902 0.000000 -0.291146
v 0.102676 0.000000 -0.304711
v 0.107148 0.000000 -0.317575
v 0.113193 0.000000 -0.329614
v 0.120687 0.000000 -0.340703
v 0.129504 0.000000 -0.350717
v 0.139521 0.000000 -0.359533
v 0.150612 0.000000 -0.367025
v 0.162653 0.000000 -0.373068
v 0.175520 0.000000 -0.377540
v 0.189088 0.000000 -0.380314
v 0.203232 0.000000 -0.381266
v 0.217377 0.000000 -0.380314
v 0.230945 0.000000 -0.377540
v 0.243812 0.000000 -0.373068
v 0.255853 0.000000 -0.367025
v 0.266944 0.000000 -0.359533
v 0.276961 0.000000 -0.350717
v 0.285778 0.000000 -0.340703
v 0.293271 0.000000 -0.329614
v 0.299316 0.000000 -0.317575
v 0.303788 0.000000 -0.304711
v 0.306563 0.000000 -0.291146
v 0.307516 0.000000 -0.277005
v 0.306563 0.000000 -0.262863
v 0.303788 0.000000 -0.249298
v 0.299316 0.000000 -0.236434
v 0.293271 0.000000 -0.224395
v 0.285778 0.000000 -0.213306
v 0.276961 0.000000 -0.203292
v 0.266944 0.000000 -0.194477
v 0.255853 0.000000 -0.186985
v 0.243812 0.000000 -0.180941
v 0.230945 0.000000 -0.176470
v 0.217377 0.000000 -0.173696
v 0.203232 0.000000 -0.172743
v 0.189088 0.000000 -0.173696
v 0.175520 0.000000 -0.176470
v 0.162653 0.000000 -0.180941
v 0.150612 0.000000 -0.186985
v 0.139521 0.000000 -0.194477
v 0.129504 0.000000 -0.203292
v 0.120687 0.000000 -0.213306
v 0.113193 0.000000 -0.224395
v 0.107148 0.000000 -0.236434
v 0.102676 0.000000 -0.249298
v 0.099902 0.000000 -0.262863
vt 0.234043 0.000000
vt 0.276596 0.000000
vt 0.255319 0.000000
vt 0.212766 0.000000
vt 0.297872 0.000000
vt 0.191489 0.000000
vt 0.319149 0.000000
vt 0.170213 0.000000
vt 0.340426 0.000000
vt 0.148936 0.000000
vt 0.361702 0.000000
vt 0.127660 0.000000
vt 0.382979 0.000000
vt 0.106383 0.000000
vt 0.404255 0.000000
vt 0.085106 0.000000
vt 0.425532 0.000000
vt 0.063830 0.000000
vt 0.446809 0.000000
vt 0.042553 0.000000
vt 0.468085 0.000000
vt 0.021277 0.000000
vt 0.489362 0.000000
vt 0.000000 0.000000
vt 0.510638 0.000000
vt 1.000000 0.000000
vt 0.531915 0.000000
vt 0.978723 0.000000
vt 0.553191 0.000000
vt 0.957447 0.000000
vt 0.574468 0.000000
vt 0.936170 0.000000
vt 0.595745 0.000000
vt 0.914894 0.000000
vt 0.617021 0.000000
vt 0.893617 0.000000
vt 0.638298 0.000000
vt 0.872340 0.000000
vt 0.659574 0.000000
vt 0.851064 0.000000
vt 0.680851 0.000000
vt 0.829787 0.000000
vt 0.702128 0.000000
vt 0.808511 0.000000
vt 0.723404 0.000000
vt 0.787234 0.000000
vt 0.744681 0.000000
vt 0.765957 0.000000
vn 0.0000 1.0000 0.0000
usemtl SVGMat
s off
f 12/1/1 14/2/1 13/3/1
f 11/4/1 14/2/1 12/1/1
f 11/4/1 15/5/1 14/2/1
f 10/6/1 15/5/1 11/4/1
f 10/6/1 16/7/1 15/5/1
f 9/8/1 16/7/1 10/6/1
f 9/8/1 17/9/1 16/7/1
f 8/10/1 17/9/1 9/8/1
f 8/10/1 18/11/1 17/9/1
f 7/12/1 18/11/1 8/10/1
f 7/12/1 19/13/1 18/11/1
f 6/14/1 19/13/1 7/12/1
f 6/14/1 20/15/1 19/13/1
f 5/16/1 20/15/1 6/14/1
f 5/16/1 21/17/1 20/15/1
f 4/18/1 21/17/1 5/16/1
f 4/18/1 22/19/1 21/17/1
f 3/20/1 22/19/1 4/18/1
f 3/20/1 23/21/1 22/19/1
f 2/22/1 23/21/1 3/20/1
f 2/22/1 24/23/1 23/21/1
f 1/24/1 24/23/1 2/22/1
f 1/24/1 25/25/1 24/23/1
f 48/26/1 25/25/1 1/24/1
f 48/26/1 26/27/1 25/25/1
f 47/28/1 26/27/1 48/26/1
f 47/28/1 27/29/1 26/27/1
f 46/30/1 27/29/1 47/28/1
f 46/30/1 28/31/1 27/29/1
f 45/32/1 28/31/1 46/30/1
f 45/32/1 29/33/1 28/31/1
f 44/34/1 29/33/1 45/32/1
f 44/34/1 30/35/1 29/33/1
f 43/36/1 30/35/1 44/34/1
f 43/36/1 31/37/1 30/35/1
f 42/38/1 31/37/1 43/36/1
f 42/38/1 32/39/1 31/37/1
f 41/40/1 32/39/1 42/38/1
f 41/40/1 33/41/1 32/39/1
f 40/42/1 33/41/1 41/40/1
f 40/42/1 34/43/1 33/41/1
f 39/44/1 34/43/1 40/42/1
f 39/44/1 35/45/1 34/43/1
f 38/46/1 35/45/1 39/44/1
f 38/46/1 36/47/1 35/45/1
f 37/48/1 36/47/1 38/46/1
o Curve.004_Curve.009
v 0.033623 -0.018770 -0.009708
v 0.021346 0.013232 -0.010960
v -0.019436 0.013232 -0.010960
v -0.031402 -0.018770 -0.009708
v -0.023161 -0.018770 -0.009708
v -0.014807 0.005281 -0.010649
v 0.016661 0.005281 -0.010649
v 0.024648 -0.018770 -0.009708
v 0.032962 -0.015022 0.074440
v 0.033623 -0.015494 0.074003
v 0.021346 0.016507 0.072751
v 0.021034 0.016071 0.073223
v -0.019436 0.016507 0.072751
v -0.019120 0.016071 0.073223
v -0.030746 -0.015022 0.074440
v -0.031402 -0.015494 0.074003
v -0.023161 -0.015494 0.074003
v -0.023485 -0.015022 0.074440
v -0.015131 0.009028 0.073499
v -0.014807 0.008556 0.073062
v 0.016661 0.008556 0.073062
v 0.016990 0.009028 0.073499
v 0.024648 -0.015494 0.074003
v 0.024977 -0.015022 0.074440
vt 0.857143 0.000000
vt 1.000000 0.000000
vt 1.000000 0.000000
vt 0.857143 0.000000
vt 0.571429 0.000000
vt 0.714286 0.000000
vt 0.714286 0.000000
vt 0.571429 0.000000
vt 0.428571 0.000000
vt 0.428571 0.000000
vt 0.142857 0.000000
vt 0.285714 0.000000
vt 0.285714 0.000000
vt 0.142857 0.000000
vt 0.000000 0.000000
vt 0.000000 0.000000
vt 0.291932 0.000000
vt 0.433741 0.000000
vt 0.560793 0.000000
vt 0.626734 0.000000
vt 0.715600 0.000000
vt 0.942839 0.000000
vt 0.054187 0.000000
vt 0.154196 0.000000
vn -0.9491 -0.3147 0.0123
vn 0.9447 -0.3276 0.0128
vn 0.0000 -0.9992 0.0391
vn 0.0000 0.9992 -0.0391
vn 0.0000 -0.0391 -0.9992
vn 0.0000 0.0391 0.9992
vn -0.9367 0.3497 -0.0137
vn 0.0000 -0.6789 0.7342
vn 0.6603 0.2806 0.6967
vn 0.0000 0.7342 0.6789
vn -0.6624 0.2750 0.6969
vn 0.6680 -0.2040 0.7156
vn -0.6711 -0.1949 0.7153
vn 0.9337 0.3577 -0.0140
usemtl SVGMat.001
s off
f 55/49/2 56/50/2 71/51/2 69/52/2
f 53/53/3 54/54/3 68/55/3 65/56/3
f 52/57/4 53/53/4 65/56/4 64/58/4
f 50/59/5 51/60/5 61/61/5 59/62/5
f 56/50/4 49/63/4 58/64/4 71/51/4
f 51/60/6 50/59/6 49/63/6 56/50/6 55/49/6 54/54/6 53/53/6 52/57/6
f 54/54/4 55/49/4 69/52/4 68/55/4
f 62/65/7 63/66/7 66/67/7 67/68/7 70/69/7 72/70/7 57/71/7 60/72/7
f 51/60/8 52/57/8 64/58/8 61/61/8
f 64/58/9 65/56/9 66/67/9 63/66/9
f 58/64/10 59/62/10 60/72/10 57/71/10
f 68/55/9 69/52/9 70/69/9 67/68/9
f 59/62/11 61/61/11 62/65/11 60/72/11
f 61/61/12 64/58/12 63/66/12 62/65/12
f 65/56/13 68/55/13 67/68/13 66/67/13
f 69/52/14 71/51/14 72/70/14 70/69/14
f 57/71/9 72/70/9 71/51/9 58/64/9
f 49/63/15 50/59/15 59/62/15 58/64/15
o Curve.005_Curve.010
v -0.038683 -0.018770 -0.009708
v -0.023810 0.020591 -0.011248
v -0.029172 0.030092 -0.011620
v -0.044243 -0.011073 -0.010009
v -0.052992 -0.011073 -0.010009
v -0.030894 0.045825 -0.012235
v -0.017178 0.021183 -0.011271
v 0.018552 0.021183 -0.011271
v 0.004949 0.057442 -0.012690
v -0.003349 0.057442 -0.012690
v -0.010799 0.037169 -0.011897
v -0.003349 0.037169 -0.011897
v 0.000320 0.048053 -0.012322
v 0.007545 0.029416 -0.011593
v -0.013678 0.029416 -0.011593
v -0.027338 0.055130 -0.012599
v -0.010461 0.097056 -0.014240
v -0.019210 0.097056 -0.014240
v -0.064931 -0.018770 -0.009708
v -0.038998 -0.015022 0.074440
v -0.038683 -0.015494 0.074003
v -0.024311 0.023846 0.072919
v -0.023810 0.023866 0.072463
v -0.029172 0.033368 0.072091
v -0.029084 0.032304 0.072588
v -0.044243 -0.007797 0.073702
v -0.043925 -0.008234 0.074174
v -0.053657 -0.008234 0.074174
v -0.052992 -0.007797 0.073702
v -0.030894 0.049101 0.071476
v -0.030967 0.050186 0.071888
v -0.016910 0.024931 0.072876
v -0.017178 0.024458 0.072440
v 0.018552 0.024458 0.072440
v 0.017896 0.024931 0.072876
v 0.004634 0.060281 0.071493
v 0.004949 0.060717 0.071021
v -0.003031 0.060281 0.071493
v -0.003349 0.060717 0.071021
v -0.010799 0.040445 0.071814
v -0.010148 0.040917 0.072251
v -0.003675 0.040917 0.072251
v -0.003349 0.040445 0.071814
v 0.000320 0.051328 0.071388
v 0.000291 0.052681 0.071791
v 0.008209 0.032255 0.072590
v 0.007545 0.032691 0.072118
v -0.013678 0.032691 0.072118
v -0.013952 0.032255 0.072590
v -0.027839 0.058397 0.071567
v -0.027338 0.058405 0.071111
v -0.011134 0.099895 0.069943
v -0.010461 0.100332 0.069471
v -0.018900 0.099895 0.069943
v -0.019210 0.100332 0.069471
v -0.064931 -0.015494 0.074003
v -0.064262 -0.015022 0.074440
vt 0.888889 0.000000
vt 0.944444 0.000000
vt 0.944444 0.000000
vt 0.888889 0.000000
vt 0.055556 0.000000
vt 0.111111 0.000000
vt 0.111111 0.000000
vt 0.055556 0.000000
vt 1.000000 0.000000
vt 0.000000 0.000000
vt 0.000000 0.000000
vt 1.000000 0.000000
vt 0.500000 0.000000
vt 0.555556 0.000000
vt 0.555556 0.000000
vt 0.500000 0.000000
vt 0.333333 0.000000
vt 0.388889 0.000000
vt 0.388889 0.000000
vt 0.333333 0.000000
vt 0.166667 0.000000
vt 0.166667 0.000000
vt 0.222222 0.000000
vt 0.277778 0.000000
vt 0.277778 0.000000
vt 0.222222 0.000000
vt 0.444444 0.000000
vt 0.444444 0.000000
vt 0.666667 0.000000
vt 0.722222 0.000000
vt 0.722222 0.000000
vt 0.666667 0.000000
vt 0.833333 0.000000
vt 0.833333 0.000000
vt 0.611111 0.000000
vt 0.611111 0.000000
vt 0.891290 0.000000
vt 0.940819 0.000000
vt 0.980262 0.000000
vt 0.019612 0.000000
vt 0.065269 0.000000
vt 0.118224 0.000000
vt 0.197609 0.000000
vt 0.426161 0.000000
vt 0.611468 0.000000
vt 0.350710 0.000000
vt 0.391534 0.000000
vt 0.446319 0.000000
vt 0.496448 0.000000
vt 0.544486 0.000000
vt 0.594887 0.000000
vt 0.513548 0.000000
vt 0.596880 0.000000
vt 0.727191 0.000000
vt 0.836721 0.000000
vt 0.777778 0.000000
vt 0.777778 0.000000
vn 0.0000 0.9992 -0.0391
vn 0.8710 0.4908 -0.0192
vn 0.0000 -0.9992 0.0391
vn -0.9387 0.3445 -0.0135
vn -0.9391 0.3433 -0.0134
vn 0.9323 -0.3615 0.0141
vn 0.9364 0.3508 -0.0137
vn -0.9325 -0.3609 0.0141
vn 0.9278 -0.3729 0.0146
vn 0.9477 -0.3190 0.0125
vn 0.0000 0.0391 0.9992
vn -0.9303 0.3666 -0.0143
vn 0.0000 -0.0391 -0.9992
vn 0.8833 0.4685 -0.0183
vn -0.8739 -0.4857 0.0190
vn 0.0000 -0.6789 0.7342
vn 0.0000 0.7342 0.6789
vn -0.6578 0.2869 0.6964
vn 0.6560 -0.2360 0.7169
vn -0.6638 0.2712 0.6970
vn 0.6159 0.3747 0.6930
vn -0.6641 0.2704 0.6971
vn 0.6592 -0.2280 0.7166
vn -0.6179 -0.3158 0.7200
vn 0.6701 -0.1979 0.7154
vn 0.6621 0.2757 0.6969
vn 0.6246 0.3589 0.6936
vn -0.6594 -0.2276 0.7166
vn 0.6615 -0.2219 0.7163
vn 0.9355 -0.3530 0.0138
usemtl SVGMat.001
s off
f 89/73/16 90/74/16 127/75/16 125/76/16
f 74/77/17 75/78/17 96/79/17 95/80/17
f 91/81/18 73/82/18 93/83/18 128/84/18
f 82/85/19 83/86/19 112/87/19 111/88/19
f 79/89/18 80/90/18 106/91/18 105/92/18
f 75/78/20 76/93/20 98/94/20 96/79/20
f 77/95/21 78/96/21 102/97/21 101/98/21
f 80/90/22 81/99/22 109/100/22 106/91/22
f 81/99/16 82/85/16 111/88/16 109/100/16
f 85/101/23 86/102/23 119/103/23 116/104/23
f 88/105/24 89/73/24 125/76/24 123/106/24
f 76/93/16 77/95/16 101/98/16 98/94/16
f 84/107/25 85/101/25 116/104/25 115/108/25
f 124/109/26 126/110/26 129/111/26 92/112/26 94/113/26 97/114/26 99/115/26 100/116/26 103/117/26 104/118/26 107/119/26 108/120/26 110/121/26 113/122/26 114/123/26 117/124/26 118/125/26 121/126/26 122/127/26
f 86/102/16 87/128/16 120/129/16 119/103/16
f 90/74/27 91/81/27 128/84/27 127/75/27
f 89/73/28 88/105/28 87/128/28 86/102/28 85/101/28 84/107/28 83/86/28 82/85/28 81/99/28 80/90/28 79/89/28 78/96/28 77/95/28 76/93/28 75/78/28 74/77/28 73/82/28 91/81/28 90/74/28
f 83/86/18 84/107/18 115/108/18 112/87/18
f 87/128/29 88/105/29 123/106/29 120/129/29
f 78/96/30 79/89/30 105/92/30 102/97/30
f 105/92/31 106/91/31 107/119/31 104/118/31
f 119/103/32 120/129/32 121/126/32 118/125/32
f 127/75/33 128/84/33 129/111/33 126/110/33
f 125/76/32 127/75/32 126/110/32 124/109/32
f 123/106/34 125/76/34 124/109/34 122/127/34
f 111/88/35 112/87/35 113/122/35 110/121/35
f 95/80/36 96/79/36 97/114/36 94/113/36
f 96/79/37 98/94/37 99/115/37 97/114/37
f 101/98/38 102/97/38 103/117/38 100/116/38
f 109/100/32 111/88/32 110/121/32 108/120/32
f 102/97/39 105/92/39 104/118/39 103/117/39
f 115/108/40 116/104/40 117/124/40 114/123/40
f 106/91/41 109/100/41 108/120/41 107/119/41
f 120/129/42 123/106/42 122/127/42 121/126/42
f 112/87/31 115/108/31 114/123/31 113/122/31
f 116/104/43 119/103/43 118/125/43 117/124/43
f 93/83/44 95/80/44 94/113/44 92/112/44
f 98/94/32 101/98/32 100/116/32 99/115/32
f 92/112/31 129/111/31 128/84/31 93/83/31
f 73/82/45 74/77/45 95/80/45 93/83/45
o Curve.006_Curve.011
v 0.017480 0.113297 -0.014875
v 0.065713 -0.018770 -0.009708
v 0.040171 -0.018770 -0.009708
v 0.001873 0.085637 -0.013793
v -0.002333 0.075853 -0.013410
v 0.001478 0.065365 -0.013000
v -0.006876 0.065365 -0.013000
v -0.014638 0.044500 -0.012183
v -0.019831 0.054481 -0.012574
v -0.002417 0.099030 -0.014317
v -0.004957 0.104866 -0.014546
v -0.016218 0.104866 -0.014546
v -0.012662 0.113297 -0.014875
v 0.000320 0.113297 -0.014875
v 0.045533 -0.010255 -0.010041
v 0.053549 -0.010255 -0.010041
v 0.007941 0.113297 -0.014875
v 0.017480 0.116572 0.068835
v 0.017162 0.116135 0.069308
v 0.065062 -0.015022 0.074440
v 0.065713 -0.015494 0.074003
v 0.040171 -0.015494 0.074003
v 0.040489 -0.015022 0.074440
v 0.001906 0.090160 0.070324
v 0.001873 0.088913 0.069918
v -0.002333 0.079129 0.070301
v -0.002822 0.079161 0.070754
v 0.000829 0.069113 0.071148
v 0.001478 0.068640 0.070711
v -0.007193 0.069113 0.071148
v -0.006876 0.068640 0.070711
v -0.014638 0.047776 0.071527
v -0.014707 0.048912 0.071938
v -0.019332 0.057801 0.071590
v -0.019831 0.057757 0.071137
v -0.001925 0.102333 0.069848
v -0.002417 0.102305 0.069394
v -0.004659 0.108614 0.069602
v -0.004957 0.108142 0.069165
v -0.016218 0.108142 0.069165
v -0.015533 0.108614 0.069602
v -0.012360 0.116135 0.069308
v -0.012662 0.116572 0.068835
v 0.000320 0.116572 0.068835
v 0.000002 0.116135 0.069308
v 0.045215 -0.007416 0.074142
v 0.045533 -0.006979 0.073670
v 0.053549 -0.006979 0.073670
v 0.054201 -0.007416 0.074142
v 0.008593 0.116135 0.069308
v 0.007941 0.116572 0.068835
vt 0.875000 0.000000
vt 0.812500 0.000000
vt 0.812500 0.000000
vt 0.875000 0.000000
vt 0.375000 0.000000
vt 0.312500 0.000000
vt 0.312500 0.000000
vt 0.375000 0.000000
vt 0.437500 0.000000
vt 0.437500 0.000000
vt 0.000000 0.000000
vt 1.000000 0.000000
vt 1.000000 0.000000
vt 0.000000 0.000000
vt 0.500000 0.000000
vt 0.500000 0.000000
vt 0.125000 0.000000
vt 0.062500 0.000000
vt 0.062500 0.000000
vt 0.125000 0.000000
vt 0.187500 0.000000
vt 0.187500 0.000000
vt 0.625000 0.000000
vt 0.562500 0.000000
vt 0.562500 0.000000
vt 0.625000 0.000000
vt 0.750000 0.000000
vt 0.750000 0.000000
vt 0.250000 0.000000
vt 0.250000 0.000000
vt 0.687500 0.000000
vt 0.687500 0.000000
vt 0.937500 0.000000
vt 0.937500 0.000000
vt 0.800643 0.000000
vt 0.744829 0.000000
vt 0.686858 0.000000
vt 0.630290 0.000000
vt 0.561787 0.000000
vt 0.496095 0.000000
vt 0.439596 0.000000
vt 0.389843 0.000000
vt 0.319741 0.000000
vt 0.281342 0.000000
vt 0.376383 0.000000
vt 0.127698 0.000000
vt 0.065415 0.000000
vt 0.044413 0.000000
vt 0.948405 0.000000
vt 0.584257 0.000000
vt 0.699294 0.000000
vn 0.9392 0.3432 -0.0134
vn 0.0000 -0.9992 0.0391
vn 0.9373 -0.3481 0.0136
vn 0.0000 0.9992 -0.0391
vn -0.8873 -0.4609 0.0180
vn -0.9389 -0.3439 0.0135
vn -0.9170 -0.3985 0.0156
vn 0.9188 -0.3943 0.0154
vn 0.9400 0.3409 -0.0133
vn -0.9382 -0.3458 0.0135
vn -0.0000 -0.0391 -0.9992
vn -0.9215 0.3881 -0.0152
vn 0.0000 0.0391 0.9992
vn -0.9315 0.3635 -0.0142
vn -0.6274 -0.2983 0.7193
vn 0.6647 0.2687 0.6971
vn 0.0000 -0.6789 0.7342
vn -0.6516 0.3021 0.6958
vn 0.6641 0.2703 0.6971
vn -0.6639 -0.2155 0.7161
vn 0.6643 0.2699 0.6971
vn -0.6587 0.2847 0.6965
vn 0.6497 -0.2512 0.7175
vn -0.6634 -0.2169 0.7161
vn -0.6484 -0.2541 0.7176
vn 0.0000 0.7342 0.6789
vn 0.6628 -0.2185 0.7162
vn 0.9394 0.3426 -0.0134
usemtl SVGMat.001
s off
f 144/130/46 143/131/46 173/132/46 176/133/46
f 136/134/47 135/135/47 158/136/47 160/137/47
f 137/138/48 136/134/48 160/137/48 161/139/48
f 130/140/49 146/141/49 180/142/49 147/143/49
f 138/144/50 137/138/50 161/139/50 164/145/50
f 132/146/47 131/147/47 150/148/47 151/149/47
f 133/150/51 132/146/51 151/149/51 154/151/51
f 140/152/52 139/153/52 166/154/52 168/155/52
f 143/131/49 142/156/49 172/157/49 173/132/49
f 134/158/53 133/150/53 154/151/53 155/159/53
f 135/135/54 134/158/54 155/159/54 158/136/54
f 141/160/47 140/152/47 168/155/47 169/161/47
f 146/141/55 145/162/55 177/163/55 180/142/55
f 145/162/49 144/130/49 176/133/49 177/163/49
f 143/131/56 144/130/56 145/162/56 146/141/56 130/140/56 131/147/56 132/146/56 133/150/56 134/158/56 135/135/56 136/134/56 137/138/56 138/144/56 139/153/56 140/152/56 141/160/56 142/156/56
f 142/156/57 141/160/57 169/161/57 172/157/57
f 174/164/58 171/165/58 170/166/58 167/167/58 165/168/58 163/169/58 162/170/58 159/171/58 157/172/58 156/173/58 153/174/58 152/175/58 149/176/58 148/177/58 179/178/58 178/179/58 175/180/58
f 139/153/59 138/144/59 164/145/59 166/154/59
f 162/170/60 163/169/60 164/145/60 161/139/60
f 156/173/61 157/172/61 158/136/61 155/159/61
f 157/172/62 159/171/62 160/137/62 158/136/62
f 170/166/63 171/165/63 172/157/63 169/161/63
f 174/164/64 175/180/64 176/133/64 173/132/64
f 152/175/65 153/174/65 154/151/65 151/149/65
f 148/177/66 149/176/66 150/148/66 147/143/66
f 163/169/67 165/168/67 166/154/67 164/145/67
f 153/174/68 156/173/68 155/159/68 154/151/68
f 178/179/69 179/178/69 180/142/69 177/163/69
f 165/168/70 167/167/70 168/155/70 166/154/70
f 167/167/62 170/166/62 169/161/62 168/155/62
f 171/165/71 174/164/71 173/132/71 172/157/71
f 147/143/71 180/142/71 179/178/71 148/177/71
f 159/171/72 162/170/72 161/139/72 160/137/72
f 175/180/71 178/179/71 177/163/71 176/133/71
f 149/176/62 152/175/62 151/149/62 150/148/62
f 131/147/73 130/140/73 147/143/73 150/148/73
